<svg xmlns="http://www.w3.org/2000/svg" xmlns:xlink="http://www.w3.org/1999/xlink" width="500" zoomAndPan="magnify" viewBox="0 0 375 374.999991" height="500" preserveAspectRatio="xMidYMid meet" version="1.0"><defs><clipPath id="7c926bc54b"><path d="M 114.671875 106.691406 L 260.171875 106.691406 L 260.171875 267.941406 L 114.671875 267.941406 Z M 114.671875 106.691406 " clip-rule="nonzero"/></clipPath></defs><rect x="-37.5" width="450" fill="#ffffff" y="-37.499999" height="449.999989" fill-opacity="1"/><rect x="-37.5" width="450" fill="#001532" y="-37.499999" height="449.999989" fill-opacity="1"/><g clip-path="url(#7c926bc54b)"><path fill="#ffffff" d="M 198.230469 197.433594 L 255.546875 148.109375 L 255.546875 106.710938 L 114.671875 106.710938 L 114.671875 205.394531 L 149.699219 176.734375 L 149.699219 140.945312 L 214.050781 140.945312 L 114.671875 222.910156 L 114.671875 268.285156 L 171.195312 219.722656 L 215.742188 268.285156 L 260.324219 268.285156 Z M 198.230469 197.433594 " fill-opacity="1" fill-rule="nonzero"/></g><path stroke-linecap="butt" transform="matrix(0.000000001309, -0.75, 0.75, 0.000000001309, 136.168868, 200.577409)" fill="none" stroke-linejoin="miter" d="M -0.000954358 1.998802 L 108.420928 1.998802 " stroke="#001532" stroke-width="4" stroke-opacity="1" stroke-miterlimit="4"/><path stroke-linecap="butt" transform="matrix(0.75, 0, 0, 0.75, 137.673862, 119.267716)" fill="none" stroke-linejoin="miter" d="M 0.00255919 2.00242 L 140.768193 2.00242 " stroke="#001532" stroke-width="4" stroke-opacity="1" stroke-miterlimit="4"/><path stroke-linecap="butt" transform="matrix(0, -0.75, 0.75, 0, 241.751444, 166.21304)" fill="none" stroke-linejoin="miter" d="M -0.00240462 1.998075 L 62.591349 1.998075 " stroke="#001532" stroke-width="4" stroke-opacity="1" stroke-miterlimit="4"/><path stroke-linecap="butt" transform="matrix(0.57574, -0.480649, 0.480649, 0.57574, 106.237198, 257.334065)" fill="none" stroke-linejoin="miter" d="M 0.00174019 1.999421 L 236.305902 2.001505 " stroke="#001532" stroke-width="4" stroke-opacity="1" stroke-miterlimit="4"/><path stroke-linecap="butt" transform="matrix(0.505055, 0.554454, -0.554454, 0.505055, 179.419798, 199.576232)" fill="none" stroke-linejoin="miter" d="M 0.0010469 1.998049 L 162.392058 1.999441 " stroke="#001532" stroke-width="4" stroke-opacity="1" stroke-miterlimit="4"/></svg>